<svg xmlns="http://www.w3.org/2000/svg" width="1200" height="630" viewBox="0 0 1200 630"><defs><linearGradient id="grad-primary" x1="0%" x2="100%" y1="0%" y2="100%"><stop offset="0%" style="stop-color:#6366f1"/><stop offset="50%" style="stop-color:#8b5cf6"/><stop offset="100%" style="stop-color:#a855f7"/></linearGradient><linearGradient id="grad-secondary" x1="0%" x2="100%" y1="0%" y2="100%"><stop offset="0%" style="stop-color:#06b6d4"/><stop offset="100%" style="stop-color:#6366f1"/></linearGradient><filter id="glow" width="140%" height="140%" x="-20%" y="-20%"><feGaussianBlur in="SourceGraphic" result="blur" stdDeviation="8"/><feMerge><feMergeNode in="blur"/><feMergeNode in="SourceGraphic"/></feMerge></filter><filter id="soft-glow" width="200%" height="200%" x="-50%" y="-50%"><feGaussianBlur in="SourceGraphic" stdDeviation="40"/></filter><radialGradient id="orb1" cx="50%" cy="50%" r="50%"><stop offset="0%" style="stop-color:#6366f1;stop-opacity:.3"/><stop offset="100%" style="stop-color:#6366f1;stop-opacity:0"/></radialGradient><radialGradient id="orb2" cx="50%" cy="50%" r="50%"><stop offset="0%" style="stop-color:#a855f7;stop-opacity:.2"/><stop offset="100%" style="stop-color:#a855f7;stop-opacity:0"/></radialGradient></defs><rect width="1200" height="630" fill="#0a0a0b"/><rect width="1200" height="3" fill="url(#grad-primary)"/><circle cx="950" cy="180" r="250" fill="url(#orb1)"/><circle cx="200" cy="500" r="200" fill="url(#orb2)"/><circle cx="1100" cy="520" r="120" fill="url(#orb2)"/><g fill="#71717a" opacity=".08"><circle cx="100" cy="100" r="2"/><circle cx="160" cy="100" r="2"/><circle cx="220" cy="100" r="2"/><circle cx="280" cy="100" r="2"/><circle cx="340" cy="100" r="2"/><circle cx="100" cy="160" r="2"/><circle cx="160" cy="160" r="2"/><circle cx="220" cy="160" r="2"/><circle cx="280" cy="160" r="2"/><circle cx="340" cy="160" r="2"/><circle cx="860" cy="430" r="2"/><circle cx="920" cy="430" r="2"/><circle cx="980" cy="430" r="2"/><circle cx="1040" cy="430" r="2"/><circle cx="1100" cy="430" r="2"/><circle cx="860" cy="490" r="2"/><circle cx="920" cy="490" r="2"/><circle cx="980" cy="490" r="2"/><circle cx="1040" cy="490" r="2"/><circle cx="1100" cy="490" r="2"/><circle cx="860" cy="550" r="2"/><circle cx="920" cy="550" r="2"/><circle cx="980" cy="550" r="2"/><circle cx="1040" cy="550" r="2"/><circle cx="1100" cy="550" r="2"/></g><text x="600" y="280" fill="url(#grad-primary)" filter="url(#glow)" font-family="Inter, Helvetica, Arial, sans-serif" font-size="160" font-weight="800" letter-spacing="-4" text-anchor="middle">BY</text><rect width="120" height="3" x="540" y="310" fill="url(#grad-secondary)" rx="2"/><text x="600" y="370" fill="#fafafa" font-family="Inter, Helvetica, Arial, sans-serif" font-size="32" font-weight="600" letter-spacing="6" text-anchor="middle">BHAVY YADAV</text><text x="600" y="415" fill="#a1a1aa" font-family="Inter, Helvetica, Arial, sans-serif" font-size="20" font-weight="400" letter-spacing="3" text-anchor="middle">SOFTWARE DEVELOPMENT ENGINEER</text><text x="600" y="465" fill="#6366f1" font-family="JetBrains Mono, monospace" font-size="16" font-weight="500" letter-spacing="2" text-anchor="middle">Go 路 Java 路 Python 路 Microservices 路 Cybersecurity</text><rect width="1200" height="3" y="627" fill="url(#grad-primary)"/></svg>